<svg id="Capa_1" data-name="Capa 1" xmlns="http://www.w3.org/2000/svg" viewBox="0 0 439.16 439.16"><path d="M382.43,71.9A219.58,219.58,0,0,0,71.9,382.43,219.58,219.58,0,1,0,382.43,71.9ZM227.17,432.19c-113.06,0-205-92-205-205s92-205,205-205,205,92,205,205S340.22,432.19,227.17,432.19Z" transform="translate(-7.59 -7.59)"/><path d="M332.52,294.77c-43.75-2.51-80.13-27.94-95.34-66.89l-.07-.18A125.2,125.2,0,0,0,122,151.79h-7.28V309.35H122a125,125,0,0,0,108.22-62.14A117.89,117.89,0,0,0,268.79,289c20.5,13.45,45,20.56,71,20.56h7.28V154.88H332.52Zm-110.07-64.2a110.09,110.09,0,0,1-93.22,64v-128A110.09,110.09,0,0,1,222.45,230.57Z" transform="translate(-7.59 -7.59)"/></svg>